<?xml version="1.0" encoding="utf-8"?>
<!-- Generator: Adobe Illustrator 21.1.0, SVG Export Plug-In . SVG Version: 6.00 Build 0)  -->
<svg version="1.1" id="Layer_1" xmlns="http://www.w3.org/2000/svg" xmlns:xlink="http://www.w3.org/1999/xlink" x="0px" y="0px"
	 viewBox="0 0 350 128" style="enable-background:new 0 0 350 128;" xml:space="preserve">
<style type="text/css">
	.st0{fill:#FFFFFF;}
</style>
<g>
	<path class="st0" d="M35,22.2h7.2v62H35V22.2z"/>
	<path class="st0" d="M64.5,30.4c-1.5,0-2.6-0.4-3.4-1.2c-0.8-0.8-1.2-1.9-1.2-3.3c0-1.4,0.4-2.5,1.2-3.3c0.8-0.8,2-1.2,3.4-1.2
		s2.6,0.4,3.5,1.2c0.9,0.8,1.3,1.9,1.3,3.3c0,1.4-0.4,2.5-1.3,3.3C67.1,30,65.9,30.4,64.5,30.4z M60.9,40.6h7.2v43.6h-7.2V40.6z"/>
	<path class="st0" d="M94.6,49.1c2.9-6.3,7.7-9.5,14.7-9.5c5.2,0,9.2,1.7,12.1,5.1c2.9,3.4,4.3,8,4.3,13.9v25.6h-7.1V58.6
		c0-4.2-1-7.3-3-9.5c-2-2.1-4.8-3.2-8.4-3.2s-6.6,1.5-8.8,4.5c-2.2,3-3.4,7.1-3.5,12.4v21.4h-7.2V40.7h6.2L94.6,49.1z"/>
	<path class="st0" d="M155.6,61.2l-5.8,4.7v18.3h-7.2v-62h7.2v36l21-17.6h10l-20,16.3l21,27.2H173L155.6,61.2z"/>
	<path class="st0" d="M201.1,47.2c2.9-5,7.2-7.6,12.7-7.6c5.6,0,10.2,2.1,13.9,6.2c3.7,4.2,5.6,9.6,5.6,16.5s-1.9,12.3-5.6,16.6
		c-3.8,4.2-8.3,6.3-13.7,6.3c-2.9,0-5.5-0.7-7.9-2.2c-2.3-1.5-4.2-3.6-5.5-6.5l-1.6,7.6h-5v-62h7.2V47.2z M213.4,46
		c-3.5,0-6.3,1.1-8.6,3.3c-2.3,2.2-3.5,5.3-3.6,9.2v7.1c0,4,1.2,7.2,3.6,9.6c2.4,2.4,5.3,3.6,8.7,3.6c3.4,0,6.3-1.5,8.8-4.5
		c2.5-3,3.7-7,3.7-12c0-5-1.2-8.9-3.7-11.9C219.8,47.5,216.8,46,213.4,46z"/>
	<path class="st0" d="M251,30.4c-1.5,0-2.6-0.4-3.4-1.2c-0.8-0.8-1.2-1.9-1.2-3.3c0-1.4,0.4-2.5,1.2-3.3c0.8-0.8,2-1.2,3.4-1.2
		s2.6,0.4,3.5,1.2c0.9,0.8,1.3,1.9,1.3,3.3c0,1.4-0.4,2.5-1.3,3.3C253.7,30,252.5,30.4,251,30.4z M247.5,40.6h7.2v43.6h-7.2V40.6z"
		/>
	<path class="st0" d="M276.1,82.8c-3.6-1.8-5.5-4.5-5.5-8.1c0-1.9,0.7-3.5,2.1-5c1.4-1.4,3.2-2.4,5.3-2.9c-3.3-2.9-4.9-6.7-4.9-11.5
		c0-4.7,1.7-8.6,5.1-11.5c3.4-2.9,7.4-4.4,12-4.4c4.6,0,8.5,1.1,11.7,3.3c0.4-3.2,1.7-5.8,3.9-7.7c2.2-1.9,5-2.9,8.5-2.9l-0.6,7.1
		c-5.3,0-8.1,2.2-8.4,6.7c2.1,2.6,3.2,5.7,3.2,9.4c0,4.7-1.7,8.5-5.1,11.5c-3.4,3-7.6,4.5-12.6,4.5c-3.5,0-6.5-0.7-9.2-2.1
		c-1.2,0.2-2.3,0.8-3.3,1.7c-1,0.9-1.5,2.1-1.5,3.6c0,3.2,2.7,4.8,8,4.8h16.9c4.1,0,7.3,0.9,9.6,2.6s3.5,4.1,3.5,7.2
		c0,4.6-2.3,8.6-7,12.1c-4.6,3.5-10.5,5.2-17.6,5.2c-7.1,0-12.7-1.3-16.7-4c-4.1-2.6-6.1-6-6.1-10c0-2.6,0.8-4.7,2.3-6.4
		S273.5,83.5,276.1,82.8z M274.7,92.4c0,2.3,1.3,4.3,3.8,6c2.5,1.7,6.3,2.5,11.5,2.5c5.1,0,9.4-1.1,12.8-3.3
		c3.4-2.2,5.1-4.8,5.1-7.8c0-1.4-0.5-2.6-1.5-3.6c-1-1-2.5-1.5-4.6-1.5h-17.6c-3.1,0.1-5.5,0.9-7.1,2.2
		C275.5,88.3,274.7,90.1,274.7,92.4z M301.4,55.4c0-3.1-0.9-5.7-2.8-7.6c-1.9-2-4.5-3-7.8-3c-3.3,0-5.9,1-7.8,3
		c-1.9,2-2.8,4.5-2.8,7.7s1,5.7,2.9,7.8c1.9,2,4.5,3,7.8,3c3.3,0,5.9-1,7.7-3.1C300.5,61.1,301.4,58.5,301.4,55.4z"/>
</g>
</svg>
